{"title":"The.Taking.of.Pelham.1.2.3.2009.DVDRIP.H264-ZEKTORM","uid":5126133,"size":748035842,"categoryP":"video","categoryS":"movies","magnet":"?xt=urn:btih:20b04dedae1018cc55b9813237b6ef6ddfc17687&amp;dn=The.Taking.of.Pelham.1.2.3.2009.DVDRIP.H264-ZEKTORM&amp;tr=udp%3A%2F%2Ftracker.openbittorrent.com%3A80&amp;tr=udp%3A%2F%2Fopen.demonii.com%3A1337&amp;tr=udp%3A%2F%2Ftracker.coppersurfer.tk%3A6969&amp;tr=udp%3A%2F%2Fexodus.desync.com%3A6969","seeders":1,"leechers":0,"uploader":"blowley","files":4,"time":1255630061,"description":"Title                            : The Taking of Pelham 1 2 3\nYear                             : 2009\nGenre                            : Crime | Drama | Thriller\niMDB URL                         : http://www.imdb.com/title/tt1111422/\nAwards                           : 2 nominations\n\nComplete name                    : The.Taking.of.Pelham.1.2.3.2009.DVDRIP.H264-ZEKTORM.mp4\nFormat                           : MPEG-4\nFormat profile                   : Base Media\nCodec ID                         : isom\nFile size                        : 701 MiB\nDuration                         : 1h 45mn\nOverall bit rate                 : 925 Kbps\nSubtitles                        : English, French (Format: VobSub)\n\nVideo\nFormat                           : AVC\nFormat/Info                      : Advanced Video Codec\nFormat profile                   : &lt;a class=&quot;__cf_email__&quot; href=&quot;/cdn-cgi/l/email-protection&quot; data-cfemail=&quot;236b4a444b636f170d12&quot;&gt;[email&amp;#160;protected]&lt;/a&gt;&lt;script cf-hash='f9e31' type=&quot;text/javascript&quot;&gt;\n/* &lt;![CDATA[ */!function(){try{var t=&quot;currentScript&quot;in document?document.currentScript:function(){for(var t=document.getElementsByTagName(&quot;script&quot;),e=t.length;e--;)if(t[e].getAttribute(&quot;cf-hash&quot;))return t[e]}();if(t&amp;&amp;t.previousSibling){var e,r,n,i,c=t.previousSibling,a=c.getAttribute(&quot;data-cfemail&quot;);if(a){for(e=&quot;&quot;,r=parseInt(a.substr(0,2),16),n=2;a.length-n;n+=2)i=parseInt(a.substr(n,2),16)^r,e+=String.fromCharCode(i);e=document.createTextNode(e),c.parentNode.replaceChild(e,c)}}}catch(u){}}();/* ]]&gt; */&lt;/script&gt;\nFormat settings, CABAC           : Yes\nFormat settings, ReFrames        : 10 frames\nCodec ID                         : avc1\nCodec ID/Info                    : Advanced Video Coding\nDuration                         : 1h 45mn\nBit rate mode                    : Variable\nBit rate                         : 841 Kbps\nMaximum bit rate                 : 11.5 Mbps\nWidth                            : 720 pixels\nHeight                           : 352 pixels\nDisplay aspect ratio             : 2.426\nFrame rate mode                  : Constant\nFrame rate                       : 23.976 fps\nResolution                       : 24 bits\nColorimetry                      : 4:2:0\nScan type                        : Progressive\nBits/(Pixel*Frame)               : 0.138\nStream size                      : 637 MiB (91%)\nTitle                            : Video\nWriting library                  : x264\n\nAudio\nFormat                           : AAC\nFormat/Info                      : Advanced Audio Codec\nFormat version                   : Version 4\nFormat profile                   : LC\nFormat settings, SBR             : Yes\nFormat settings, PS              : No\nCodec ID                         : 40\nDuration                         : 1h 45mn\nBit rate mode                    : Variable\nBit rate                         : 81.3 Kbps\nMaximum bit rate                 : 107 Kbps\nChannel(s)                       : 2 channels\nChannel positions                : L R\nSampling rate                    : 48.0 KHz\nResolution                       : 16 bits\nStream size                      : 61.6 MiB (9%)\nTitle                            : English\nLanguage                         : English\n","torrent":{"xt":"urn:btih:20b04dedae1018cc55b9813237b6ef6ddfc17687","amp;dn":"The.Taking.of.Pelham.1.2.3.2009.DVDRIP.H264-ZEKTORM","amp;tr":["udp%3A%2F%2Ftracker.openbittorrent.com%3A80","udp%3A%2F%2Fopen.demonii.com%3A1337","udp%3A%2F%2Ftracker.coppersurfer.tk%3A6969","udp%3A%2F%2Fexodus.desync.com%3A6969"],"infoHash":"20b04dedae1018cc55b9813237b6ef6ddfc17687","infoHashBuffer":{"type":"Buffer","data":[32,176,77,237,174,16,24,204,85,185,129,50,55,182,239,109,223,193,118,135]},"announce":[],"urlList":[]}}